<svg width="50" height="46" viewBox="0 0 50 46" fill="none" xmlns="http://www.w3.org/2000/svg">
<path d="M47.6517 33.5903C47.5599 33.5901 47.4711 33.5577 47.4008 33.4987C47.3305 33.4398 47.2832 33.3579 47.2671 33.2676L44.5534 17.8807C44.5445 17.8302 44.5456 17.7784 44.5566 17.7283C44.5677 17.6783 44.5886 17.6309 44.618 17.5889C44.6474 17.5468 44.6848 17.511 44.728 17.4835C44.7713 17.4559 44.8195 17.4371 44.87 17.4282C45.0806 17.384 45.2851 17.5328 45.3224 17.7449L48.0362 33.1318C48.0453 33.1823 48.0443 33.2341 48.0333 33.2842C48.0223 33.3343 48.0014 33.3818 47.972 33.4238C47.9426 33.4659 47.9051 33.5017 47.8618 33.5292C47.8185 33.5567 47.7701 33.5754 47.7196 33.5841C47.6972 33.5885 47.6745 33.5905 47.6517 33.5903ZM48.0576 35.899C47.9659 35.8989 47.8771 35.8666 47.8069 35.8075C47.7367 35.7485 47.6895 35.6666 47.6738 35.5763C47.322 33.5819 39.685 33.2157 34.9533 33.4522C34.7366 33.4744 34.5551 33.2974 34.5443 33.0823C34.5417 33.031 34.5492 32.9797 34.5664 32.9314C34.5837 32.883 34.6103 32.8386 34.6447 32.8005C34.6792 32.7624 34.7208 32.7316 34.7672 32.7096C34.8136 32.6877 34.8638 32.6751 34.9151 32.6726C36.2358 32.6047 47.8576 32.1195 48.4429 35.4406C48.4528 35.4968 48.4503 35.5545 48.4355 35.6096C48.4207 35.6648 48.394 35.716 48.3573 35.7597C48.3205 35.8034 48.2747 35.8385 48.2229 35.8626C48.1711 35.8867 48.1147 35.8991 48.0576 35.899Z" fill="black"/>
<path d="M33.0339 22.6822C32.9421 22.6822 32.8533 22.6498 32.7831 22.5907C32.7129 22.5317 32.6658 22.4498 32.65 22.3594C32.6411 22.3089 32.6422 22.2571 32.6533 22.2071C32.6644 22.157 32.6852 22.1096 32.7146 22.0676C32.744 22.0256 32.7814 21.9898 32.8247 21.9623C32.8679 21.9347 32.9162 21.9159 32.9667 21.907C36.2839 21.321 44.7586 19.0422 44.1468 15.5723C44.1377 15.5218 44.1387 15.47 44.1497 15.4198C44.1607 15.3697 44.1816 15.3223 44.211 15.2802C44.2404 15.2382 44.2779 15.2024 44.3212 15.1748C44.3645 15.1473 44.4128 15.1286 44.4634 15.1199C44.6747 15.0748 44.8792 15.2244 44.9158 15.4365C45.2912 17.5628 43.3762 19.4327 39.2259 20.9945C36.2504 22.1146 33.133 22.6707 33.1025 22.676C33.0799 22.6804 33.0569 22.6824 33.0339 22.6822Z" fill="black"/>
<path d="M44.5313 15.8949C44.4396 15.8948 44.3508 15.8624 44.2805 15.8034C44.2102 15.7444 44.1629 15.6626 44.1468 15.5722C44.1377 15.5217 44.1387 15.4699 44.1497 15.4198C44.1608 15.3696 44.1816 15.3222 44.211 15.2801C44.2404 15.2381 44.2779 15.2023 44.3212 15.1747C44.3645 15.1472 44.4129 15.1285 44.4634 15.1198L46.0014 14.8489C46.2128 14.8062 46.4165 14.9535 46.4539 15.1656C46.463 15.2161 46.462 15.2679 46.451 15.318C46.4399 15.3681 46.4191 15.4156 46.3897 15.4576C46.3603 15.4997 46.3229 15.5355 46.2795 15.563C46.2362 15.5906 46.1879 15.6093 46.1374 15.618L44.5992 15.8888C44.5769 15.8931 44.5541 15.8951 44.5313 15.8949Z" fill="black"/>
<path d="M49.5973 35.6277C49.5055 35.6275 49.4167 35.5951 49.3464 35.5361C49.2761 35.4771 49.2288 35.3952 49.2127 35.3049L45.6849 15.3014C45.6759 15.2509 45.6769 15.1991 45.6879 15.149C45.6989 15.0988 45.7197 15.0514 45.7491 15.0093C45.7785 14.9673 45.816 14.9315 45.8593 14.9039C45.9026 14.8764 45.9509 14.8577 46.0015 14.8489C46.2128 14.8062 46.4165 14.9535 46.4539 15.1656L49.9817 35.1691C49.9908 35.2196 49.9898 35.2714 49.9788 35.3215C49.9678 35.3716 49.947 35.4191 49.9175 35.4611C49.8881 35.5032 49.8507 35.539 49.8074 35.5665C49.7641 35.594 49.7157 35.6127 49.6652 35.6215C49.6428 35.6258 49.6201 35.6279 49.5973 35.6277Z" fill="black"/>
<path d="M48.0577 35.8993C47.9659 35.8993 47.8772 35.8669 47.807 35.8079C47.7367 35.7489 47.6896 35.667 47.6738 35.5766C47.6559 35.4747 47.6792 35.3697 47.7386 35.2849C47.7979 35.2001 47.8885 35.1423 47.9904 35.1242L49.5292 34.8526C49.7421 34.8098 49.9443 34.9571 49.9817 35.1692C49.9907 35.2197 49.9897 35.2715 49.9786 35.3216C49.9676 35.3717 49.9468 35.4191 49.9174 35.4612C49.888 35.5032 49.8505 35.539 49.8073 35.5666C49.764 35.5941 49.7157 35.6128 49.6651 35.6217L48.1263 35.8933C48.1036 35.8975 48.0807 35.8996 48.0577 35.8993ZM27.24 34.8099C27.1483 34.8098 27.0596 34.7774 26.9894 34.7184C26.9192 34.6594 26.8721 34.5775 26.8563 34.4872L24.9566 23.716C24.9475 23.6655 24.9486 23.6137 24.9596 23.5636C24.9706 23.5135 24.9915 23.4661 25.0209 23.424C25.0503 23.382 25.0878 23.3462 25.1311 23.3186C25.1744 23.2911 25.2227 23.2724 25.2732 23.2636L32.9667 21.9071C33.1764 21.8651 33.3817 22.0115 33.4191 22.2237C33.4281 22.2742 33.427 22.3259 33.4159 22.376C33.4048 22.4261 33.384 22.4735 33.3545 22.5155C33.3251 22.5575 33.2877 22.5933 33.2445 22.6209C33.2012 22.6484 33.153 22.6672 33.1025 22.6761L25.7935 23.9646L27.5575 33.9668L34.8665 32.6782C35.0794 32.6348 35.2815 32.7827 35.3188 32.9948C35.3278 33.0453 35.3267 33.097 35.3156 33.1471C35.3045 33.1972 35.2837 33.2446 35.2543 33.2866C35.2249 33.3286 35.1875 33.3644 35.1443 33.392C35.101 33.4195 35.0528 33.4383 35.0023 33.4472L27.3087 34.8037C27.2861 34.808 27.2631 34.8101 27.24 34.8099Z" fill="black"/>
<path d="M27.2408 34.8093C27.2142 34.8093 27.1874 34.8062 27.1608 34.8009L23.0428 33.9403C22.9663 33.9244 22.8965 33.8859 22.8421 33.8299C22.7878 33.7738 22.7515 33.7028 22.7379 33.6259L21.3807 25.9324C21.3671 25.8556 21.3769 25.7765 21.4087 25.7052C21.4405 25.6339 21.4929 25.5739 21.5592 25.5327L25.1351 23.3156C25.1894 23.282 25.251 23.2622 25.3146 23.258C25.3783 23.2537 25.442 23.2651 25.5003 23.2911C25.5585 23.3171 25.6095 23.357 25.6488 23.4073C25.688 23.4576 25.7144 23.5167 25.7255 23.5795L27.6253 34.3507C27.6364 34.4136 27.6319 34.4782 27.6124 34.5389C27.5929 34.5997 27.5588 34.6547 27.5132 34.6993C27.4399 34.7697 27.3423 34.809 27.2408 34.8093ZM23.4612 33.23L26.7564 33.9182L25.0566 24.2838L22.1959 26.0568L23.4612 33.23ZM34.6619 31.9147C34.5702 31.9147 34.4814 31.8823 34.4112 31.8232C34.341 31.7642 34.2939 31.6823 34.2782 31.592L32.9216 23.8977C32.9127 23.8472 32.9138 23.7955 32.9248 23.7454C32.9359 23.6953 32.9567 23.6479 32.9861 23.6059C33.0155 23.5639 33.0529 23.5281 33.0962 23.5005C33.1394 23.473 33.1876 23.4542 33.2381 23.4453C33.4488 23.4033 33.6532 23.5497 33.6906 23.7619L35.0472 31.4562C35.0561 31.5067 35.055 31.5584 35.0439 31.6085C35.0328 31.6585 35.012 31.7059 34.9826 31.7479C34.9532 31.79 34.9158 31.8258 34.8725 31.8533C34.8293 31.8809 34.781 31.8996 34.7305 31.9085C34.7079 31.9128 34.6849 31.9149 34.6619 31.9147Z" fill="black"/>
<path d="M23.5752 27.5235C23.4835 27.5234 23.3947 27.491 23.3245 27.432C23.2542 27.373 23.207 27.2911 23.1911 27.2007C23.1821 27.1502 23.1831 27.0984 23.1942 27.0484C23.2052 26.9983 23.226 26.9508 23.2554 26.9088C23.2848 26.8668 23.3222 26.8309 23.3655 26.8034C23.4088 26.7759 23.4571 26.7571 23.5076 26.7483L24.2774 26.6125C24.4903 26.569 24.6924 26.717 24.7298 26.929C24.7388 26.9795 24.7377 27.0313 24.7267 27.0814C24.7156 27.1315 24.6948 27.1789 24.6654 27.221C24.636 27.263 24.5986 27.2988 24.5553 27.3264C24.512 27.3539 24.4637 27.3726 24.4132 27.3815L23.6434 27.5174C23.621 27.5217 23.5981 27.5238 23.5752 27.5235ZM24.3893 32.1393C24.2975 32.1392 24.2088 32.1068 24.1385 32.0478C24.0683 31.9887 24.021 31.9069 24.0051 31.8165C23.9962 31.766 23.9972 31.7142 24.0083 31.6642C24.0194 31.6141 24.0402 31.5667 24.0696 31.5247C24.099 31.4826 24.1364 31.4468 24.1796 31.4193C24.2229 31.3917 24.2712 31.373 24.3217 31.3641L25.0908 31.2283C25.3036 31.184 25.5059 31.3327 25.5432 31.5448C25.5522 31.5953 25.5511 31.6471 25.54 31.6972C25.5289 31.7472 25.5081 31.7946 25.4787 31.8367C25.4493 31.8787 25.4119 31.9145 25.3686 31.942C25.3253 31.9696 25.2771 31.9884 25.2266 31.9973L24.4576 32.1332C24.4351 32.1375 24.4122 32.1395 24.3893 32.1393ZM23.9819 29.8305C23.89 29.8304 23.8011 29.7979 23.7308 29.7387C23.6605 29.6796 23.6132 29.5976 23.5973 29.5071C23.5796 29.4051 23.603 29.3003 23.6625 29.2156C23.722 29.1309 23.8127 29.0733 23.9146 29.0554L24.6844 28.9204C24.8969 28.8784 25.0992 29.0248 25.1368 29.2377C25.1545 29.3397 25.1311 29.4445 25.0716 29.5292C25.0121 29.6139 24.9214 29.6715 24.8195 29.6894L24.0497 29.8244C24.0273 29.8287 24.0046 29.8308 23.9819 29.8305ZM26.0422 23.518C25.9504 23.5179 25.8615 23.4855 25.7912 23.4265C25.7209 23.3675 25.6736 23.2856 25.6576 23.1952C25.6487 23.1447 25.6497 23.0929 25.6608 23.0429C25.6719 22.9928 25.6927 22.9454 25.7221 22.9034C25.7515 22.8613 25.7889 22.8255 25.8321 22.798C25.8754 22.7705 25.9237 22.7517 25.9742 22.7428L27.5131 22.4712C27.7228 22.4278 27.9281 22.5757 27.9655 22.7878C27.9834 22.8898 27.9602 22.9947 27.9008 23.0795C27.8414 23.1643 27.7508 23.2221 27.6489 23.2402L26.1101 23.5118C26.0877 23.5162 26.065 23.5182 26.0422 23.518ZM37.7381 44.8581C37.6656 44.8582 37.5946 44.8381 37.5328 44.8001C37.4711 44.7621 37.4212 44.7078 37.3886 44.6431L33.725 37.3562C33.7018 37.3104 33.6879 37.2605 33.684 37.2094C33.6802 37.1582 33.6865 37.1068 33.7026 37.0581C33.7187 37.0094 33.7442 36.9644 33.7778 36.9256C33.8113 36.8868 33.8522 36.855 33.8981 36.8321C33.9439 36.8088 33.9938 36.7948 34.0449 36.7909C34.0961 36.787 34.1475 36.7933 34.1963 36.8094C34.245 36.8255 34.2901 36.8511 34.3289 36.8847C34.3677 36.9183 34.3994 36.9593 34.4223 37.0052L38.0874 44.292C38.1336 44.3846 38.1413 44.4918 38.1087 44.59C38.0761 44.6882 38.0059 44.7695 37.9135 44.8161C37.8592 44.844 37.7991 44.8584 37.7381 44.8581ZM33.8914 45.5365C33.8189 45.5365 33.7478 45.5164 33.6861 45.4784C33.6244 45.4405 33.5745 45.3861 33.5419 45.3213L29.8783 38.0345C29.8551 37.9887 29.8412 37.9389 29.8373 37.8877C29.8335 37.8366 29.8398 37.7852 29.8558 37.7364C29.8719 37.6877 29.8975 37.6427 29.9311 37.6039C29.9646 37.5651 30.0055 37.5333 30.0514 37.5104C30.2452 37.4112 30.4795 37.4914 30.5755 37.6835L34.2408 44.9704C34.2869 45.063 34.2946 45.1701 34.262 45.2683C34.2294 45.3666 34.1592 45.4479 34.0667 45.4944C34.0125 45.5223 33.9524 45.5367 33.8914 45.5365Z" fill="black"/>
<path d="M33.1223 45.6712C33.0305 45.6711 32.9417 45.6387 32.8714 45.5797C32.8011 45.5207 32.7538 45.4389 32.7377 45.3485C32.7286 45.298 32.7296 45.2462 32.7407 45.1961C32.7517 45.1459 32.7725 45.0985 32.8019 45.0564C32.8314 45.0144 32.8688 44.9786 32.9121 44.9511C32.9555 44.9235 33.0038 44.9048 33.0544 44.8961L38.4399 43.9462C38.6512 43.9042 38.855 44.0507 38.8924 44.2628C38.9104 44.3648 38.8871 44.4697 38.8278 44.5546C38.7684 44.6394 38.6777 44.6972 38.5757 44.7152L33.1902 45.6651C33.1678 45.6694 33.145 45.6715 33.1223 45.6712ZM28.4165 36.9814C28.3247 36.9813 28.2359 36.9489 28.1656 36.8899C28.0953 36.8309 28.048 36.7491 28.0319 36.6587L27.8793 35.7928C27.8703 35.7423 27.8713 35.6905 27.8823 35.6403C27.8933 35.5902 27.9141 35.5428 27.9436 35.5007C27.973 35.4587 28.0104 35.4228 28.0538 35.3953C28.0971 35.3678 28.1454 35.3491 28.196 35.3403C28.4089 35.2961 28.611 35.4449 28.6483 35.6569L28.8009 36.5228C28.81 36.5733 28.809 36.6251 28.798 36.6753C28.787 36.7254 28.7662 36.7728 28.7367 36.8149C28.7073 36.8569 28.6698 36.8928 28.6265 36.9203C28.5832 36.9478 28.5349 36.9665 28.4843 36.9753C28.462 36.9796 28.4392 36.9816 28.4165 36.9814Z" fill="black"/>
<path d="M28.4165 36.9832C28.3245 36.9832 28.2354 36.9507 28.165 36.8914C28.0946 36.8321 28.0475 36.7498 28.032 36.659C28.0144 36.557 28.038 36.4521 28.0976 36.3674C28.1573 36.2827 28.2481 36.2252 28.3501 36.2074L35.2791 35.0103C35.4905 34.9729 35.6934 35.1163 35.7299 35.3292C35.7475 35.4313 35.7239 35.5362 35.6643 35.6208C35.6046 35.7055 35.5138 35.7631 35.4118 35.7809L28.4828 36.9779C28.4609 36.9815 28.4387 36.9833 28.4165 36.9832Z" fill="black"/>
<path d="M35.3455 35.7856C35.2537 35.7854 35.1649 35.753 35.0947 35.6941C35.0244 35.6351 34.977 35.5533 34.9609 35.4629L34.8251 34.693C34.8161 34.6425 34.8171 34.5907 34.8281 34.5406C34.8391 34.4905 34.8599 34.443 34.8894 34.401C34.9188 34.3589 34.9562 34.3231 34.9995 34.2956C35.0429 34.268 35.0912 34.2494 35.1418 34.2406C35.3514 34.1979 35.5568 34.3451 35.5941 34.5572L35.7299 35.327C35.739 35.3775 35.738 35.4293 35.727 35.4795C35.716 35.5296 35.6952 35.577 35.6657 35.6191C35.6363 35.6611 35.5989 35.6969 35.5556 35.7245C35.5123 35.752 35.4639 35.7707 35.4134 35.7795C35.391 35.7838 35.3683 35.7858 35.3455 35.7856ZM1.97642 1.56247C1.76089 1.56247 1.582 1.38778 1.582 1.17186C1.582 0.955939 1.75288 0.78125 1.9688 0.78125H1.97642C2.19234 0.78125 2.36703 0.955939 2.36703 1.17186C2.36703 1.38778 2.19234 1.56247 1.97642 1.56247ZM3.53895 1.56247C3.32342 1.56247 3.14453 1.38778 3.14453 1.17186C3.14453 0.955939 3.31541 0.78125 3.53133 0.78125H3.53895C3.75487 0.78125 3.92956 0.955939 3.92956 1.17186C3.92956 1.38778 3.75487 1.56247 3.53895 1.56247ZM5.10148 1.56247C4.88595 1.56247 4.70706 1.38778 4.70706 1.17186C4.70706 0.955939 4.87794 0.78125 5.09386 0.78125H5.10148C5.3174 0.78125 5.49209 0.955939 5.49209 1.17186C5.49209 1.38778 5.3174 1.56247 5.10148 1.56247Z" fill="black"/>
<path d="M49.6094 2.34365H0.390608C0.339302 2.34369 0.288492 2.33361 0.241084 2.31399C0.193675 2.29438 0.1506 2.26561 0.114321 2.22933C0.0780417 2.19305 0.0492712 2.14997 0.0296549 2.10257C0.0100386 2.05516 -3.84322e-05 2.00435 1.10144e-07 1.95304V1.17182C1.10144e-07 0.525631 0.525631 0 1.17183 0H48.8281C49.4742 0 49.9999 0.525631 49.9999 1.17182V1.95304C50 2.00434 49.9899 2.05515 49.9703 2.10256C49.9507 2.14997 49.9219 2.19304 49.8857 2.22932C49.8494 2.2656 49.8063 2.29438 49.7589 2.31399C49.7115 2.33361 49.6607 2.34369 49.6094 2.34365ZM0.781217 1.56243H49.2187V1.17182C49.2185 1.06829 49.1773 0.96906 49.1041 0.895851C49.0309 0.822643 48.9316 0.781423 48.8281 0.781216H1.17183C1.06827 0.781346 0.968991 0.822541 0.895766 0.895766C0.822541 0.968991 0.781346 1.06827 0.781217 1.17182V1.56243Z" fill="black"/>
<path d="M49.6094 21.093C49.5581 21.093 49.5073 21.0829 49.4599 21.0633C49.4124 21.0437 49.3694 21.0149 49.3331 20.9786C49.2968 20.9423 49.2681 20.8993 49.2484 20.8518C49.2288 20.8044 49.2187 20.7536 49.2188 20.7023V1.95311C49.2188 1.73719 49.3935 1.5625 49.6094 1.5625C49.8253 1.5625 50 1.73719 50 1.95311V20.7023C50 20.7536 49.99 20.8044 49.9703 20.8518C49.9507 20.8993 49.922 20.9423 49.8857 20.9786C49.8494 21.0149 49.8063 21.0437 49.7589 21.0633C49.7115 21.0829 49.6607 21.093 49.6094 21.093ZM0.390608 33.593C0.339302 33.593 0.288492 33.5829 0.241083 33.5633C0.193675 33.5437 0.1506 33.5149 0.114321 33.4786C0.0780416 33.4424 0.0492711 33.3993 0.0296549 33.3519C0.0100386 33.3045 -3.84322e-05 33.2537 1.10144e-07 33.2024V1.95311C1.10144e-07 1.73719 0.174689 1.5625 0.390608 1.5625C0.606527 1.5625 0.781217 1.73719 0.781217 1.95311V33.2024C0.781255 33.2537 0.771178 33.3045 0.751562 33.3519C0.731946 33.3993 0.703175 33.4424 0.666896 33.4786C0.630617 33.5149 0.587541 33.5437 0.540133 33.5633C0.492725 33.5829 0.441915 33.593 0.390608 33.593Z" fill="black"/>
<path d="M20.7032 33.5928H0.390608C0.174689 33.5928 0 33.4181 0 33.2021C0 32.9862 0.174689 32.8115 0.390608 32.8115H20.7031C20.9189 32.8115 21.0937 32.9862 21.0937 33.2021C21.0937 33.4181 20.919 33.5928 20.7032 33.5928ZM14.4536 22.6552C14.386 22.6553 14.3196 22.6378 14.2608 22.6045C14.202 22.5712 14.1529 22.5233 14.1182 22.4653L12.1093 19.1175L10.1006 22.4653C10.0744 22.5095 10.0396 22.548 9.99844 22.5786C9.95724 22.6093 9.91038 22.6315 9.86056 22.644C9.81074 22.6565 9.75894 22.659 9.70815 22.6513C9.65736 22.6437 9.60858 22.6261 9.56462 22.5995C9.52064 22.5732 9.48228 22.5385 9.45173 22.4973C9.42119 22.4561 9.39907 22.4093 9.38664 22.3596C9.37421 22.3098 9.37171 22.2581 9.37928 22.2074C9.38685 22.1567 9.40435 22.108 9.43077 22.064L11.7745 18.1579C11.9157 17.9213 12.3033 17.9213 12.4444 18.1579L14.7881 22.064C14.8145 22.108 14.832 22.1567 14.8395 22.2074C14.8471 22.2581 14.8446 22.3098 14.8322 22.3595C14.8197 22.4093 14.7976 22.4561 14.7671 22.4972C14.7366 22.5384 14.6982 22.5732 14.6543 22.5995C14.5937 22.6362 14.5243 22.6554 14.4536 22.6552Z" fill="black"/>
<path d="M7.42147 22.6555C7.35077 22.6555 7.28141 22.6363 7.22078 22.5999C7.16015 22.5636 7.11052 22.5114 7.0772 22.4491C7.04388 22.3867 7.02811 22.3165 7.03158 22.2459C7.03505 22.1753 7.05763 22.107 7.09691 22.0482L8.65944 19.7044C8.69519 19.651 8.74354 19.6072 8.80023 19.5769C8.85692 19.5465 8.9202 19.5306 8.98449 19.5305C9.11531 19.5305 9.23704 19.5962 9.30944 19.7044L9.8294 20.4849C9.88684 20.5711 9.90769 20.6766 9.88737 20.7782C9.86706 20.8798 9.80723 20.9691 9.72105 21.0266C9.5406 21.1448 9.2984 21.0969 9.1794 20.9183L8.98449 20.6254L7.74701 22.4816C7.7113 22.5352 7.66288 22.5791 7.60609 22.6094C7.54929 22.6398 7.48586 22.6556 7.42147 22.6555Z" fill="black"/>
<path d="M46.4843 12.499H3.51565C3.46435 12.4991 3.41354 12.489 3.36613 12.4694C3.31872 12.4498 3.27565 12.421 3.23937 12.3847C3.20309 12.3484 3.17432 12.3054 3.1547 12.2579C3.13508 12.2105 3.12501 12.1597 3.12505 12.1084V5.07786C3.12501 5.02656 3.13508 4.97575 3.1547 4.92834C3.17432 4.88093 3.20309 4.83786 3.23937 4.80158C3.27565 4.7653 3.31872 4.73653 3.36613 4.71691C3.41354 4.69729 3.46435 4.68722 3.51565 4.68726H46.4844C46.5357 4.68722 46.5865 4.69729 46.6339 4.71691C46.6813 4.73653 46.7244 4.7653 46.7607 4.80158C46.797 4.83786 46.8257 4.88093 46.8454 4.92834C46.865 4.97575 46.8751 5.02656 46.875 5.07786V12.1084C46.875 12.1597 46.8649 12.2105 46.8453 12.2579C46.8257 12.3053 46.7969 12.3484 46.7606 12.3847C46.7243 12.421 46.6812 12.4497 46.6338 12.4694C46.5864 12.489 46.5356 12.4991 46.4843 12.499ZM3.90626 11.7177H46.0938V5.46847H3.90626V11.7177Z" fill="black"/>
<path d="M16.0156 23.4367H3.51565C3.46435 23.4367 3.41354 23.4267 3.36613 23.407C3.31872 23.3874 3.27565 23.3587 3.23937 23.3224C3.20309 23.2861 3.17432 23.243 3.1547 23.1956C3.13508 23.1482 3.12501 23.0974 3.12505 23.0461V15.2336C3.12501 15.1823 3.13508 15.1315 3.1547 15.0841C3.17432 15.0367 3.20309 14.9936 3.23937 14.9573C3.27565 14.9211 3.31872 14.8923 3.36613 14.8727C3.41354 14.8531 3.46435 14.843 3.51565 14.843H16.0156C16.0669 14.843 16.1177 14.8531 16.1651 14.8727C16.2125 14.8923 16.2556 14.9211 16.2919 14.9573C16.3282 14.9936 16.3569 15.0367 16.3766 15.0841C16.3962 15.1315 16.4062 15.1823 16.4062 15.2336V23.0461C16.4062 23.0974 16.3962 23.1482 16.3765 23.1956C16.3569 23.243 16.3281 23.2861 16.2919 23.3223C16.2556 23.3586 16.2125 23.3874 16.1651 23.407C16.1177 23.4266 16.0669 23.4367 16.0156 23.4367ZM3.90626 22.6554H15.625V15.6241H3.90626V22.6554Z" fill="black"/>
<path d="M5.81626 18.7493C5.17007 18.7493 4.64444 18.2235 4.64444 17.5773C4.64444 16.9311 5.17007 16.4055 5.81626 16.4055C6.46246 16.4055 6.98819 16.9311 6.98819 17.5773C6.98819 18.2235 6.46256 18.7493 5.81626 18.7493ZM5.81626 17.1867C5.60074 17.1867 5.42566 17.3622 5.42566 17.5773C5.42566 17.7925 5.60074 17.968 5.81626 17.968C6.03179 17.968 6.20687 17.7925 6.20687 17.5773C6.20687 17.3622 6.03179 17.1867 5.81626 17.1867Z" fill="black"/>
<path d="M42.1875 8.59298H7.81255C7.59663 8.59298 7.42184 8.4183 7.42184 8.20238C7.42184 7.98646 7.59663 7.81177 7.81255 7.81177H42.1875C42.4034 7.81177 42.5781 7.98646 42.5781 8.20238C42.5781 8.4183 42.4034 8.59298 42.1875 8.59298Z" fill="black"/>
<path d="M37.4999 10.1555H12.5C12.2841 10.1555 12.1094 9.98079 12.1094 9.76488C12.1094 9.54896 12.2841 9.37427 12.5 9.37427H37.5C37.716 9.37427 37.8906 9.54896 37.8906 9.76488C37.8906 9.98079 37.7159 10.1555 37.4999 10.1555Z" fill="black"/>
<path d="M16.0156 25.7805H3.51565C3.29974 25.7805 3.12505 25.6058 3.12505 25.3899C3.12505 25.174 3.29974 24.9993 3.51565 24.9993H16.0156C16.2315 24.9993 16.4062 25.174 16.4062 25.3899C16.4062 25.6058 16.2315 25.7805 16.0156 25.7805Z" fill="black"/>
<path d="M16.0156 28.1243H3.51565C3.46434 28.1244 3.41353 28.1143 3.36612 28.0946C3.31871 28.075 3.27564 28.0462 3.23936 28.0099C3.20308 27.9737 3.17431 27.9306 3.1547 27.8832C3.13508 27.8357 3.12501 27.7849 3.12505 27.7336C3.12502 27.6823 3.13511 27.6315 3.15473 27.5841C3.17435 27.5367 3.20312 27.4936 3.23939 27.4574C3.27567 27.4211 3.31874 27.3923 3.36614 27.3727C3.41355 27.3531 3.46435 27.343 3.51565 27.343H16.0156C16.0669 27.343 16.1177 27.3531 16.1651 27.3727C16.2125 27.3923 16.2556 27.4211 16.2919 27.4574C16.3281 27.4936 16.3569 27.5367 16.3765 27.5841C16.3962 27.6315 16.4062 27.6823 16.4062 27.7336C16.4062 27.7849 16.3962 27.8357 16.3766 27.8832C16.3569 27.9306 16.3282 27.9737 16.2919 28.0099C16.2556 28.0462 16.2125 28.075 16.1651 28.0946C16.1177 28.1143 16.0669 28.1244 16.0156 28.1243Z" fill="black"/>
<path d="M9.7656 30.4683H3.51567C3.29975 30.4683 3.12506 30.2935 3.12506 30.0776C3.12506 29.8617 3.29975 29.687 3.51567 29.687H9.76569C9.98161 29.687 10.1563 29.8617 10.1563 30.0776C10.1563 30.2935 9.98152 30.4683 9.7656 30.4683Z" fill="black"/>
<path d="M26.1718 21.3529C26.1027 21.3529 26.0349 21.3346 25.9751 21.2999C25.9154 21.2651 25.866 21.2151 25.832 21.155C25.7979 21.0948 25.7804 21.0268 25.7813 20.9577C25.7821 20.8886 25.8013 20.8209 25.8369 20.7617L27.3993 18.1579C27.5405 17.9213 27.9281 17.9213 28.0692 18.1579L29.0092 19.7241C29.0624 19.8129 29.0782 19.9191 29.0532 20.0195C29.0281 20.1199 28.9643 20.2063 28.8757 20.2597C28.8317 20.2861 28.7829 20.3036 28.7321 20.3112C28.6813 20.3187 28.6295 20.3162 28.5797 20.3037C28.5299 20.2912 28.483 20.2691 28.4417 20.2385C28.4005 20.2079 28.3657 20.1694 28.3393 20.1254L27.7344 19.1176L26.5068 21.1631C26.4722 21.221 26.4231 21.2689 26.3644 21.3022C26.3057 21.3355 26.2393 21.3529 26.1718 21.3529Z" fill="black"/>
<path d="M23.0465 22.6555C22.9758 22.6555 22.9064 22.6363 22.8457 22.6C22.7851 22.5636 22.7354 22.5115 22.7021 22.4491C22.6688 22.3868 22.653 22.3165 22.6565 22.2459C22.6599 22.1753 22.6825 22.107 22.7218 22.0482L24.2843 19.7044C24.3201 19.651 24.3684 19.6072 24.4251 19.5769C24.4818 19.5465 24.5451 19.5306 24.6094 19.5305C24.7402 19.5305 24.8619 19.5962 24.9343 19.7044L25.4543 20.4849C25.5117 20.5711 25.5326 20.6766 25.5123 20.7782C25.4919 20.8798 25.4321 20.9691 25.3459 21.0266C25.1655 21.1448 24.9233 21.0969 24.8043 20.9183L24.6094 20.6254L23.3719 22.4816C23.3362 22.5352 23.2878 22.5791 23.231 22.6094C23.1743 22.6398 23.1108 22.6556 23.0465 22.6555Z" fill="black"/>
<path d="M21.4844 23.4367H19.1407C19.0894 23.4367 19.0386 23.4267 18.9911 23.407C18.9437 23.3874 18.9007 23.3587 18.8644 23.3224C18.8281 23.2861 18.7993 23.243 18.7797 23.1956C18.7601 23.1482 18.75 23.0974 18.7501 23.0461V15.2336C18.75 15.1823 18.7601 15.1315 18.7797 15.0841C18.7993 15.0367 18.8281 14.9936 18.8644 14.9573C18.9007 14.9211 18.9437 14.8923 18.9911 14.8727C19.0386 14.8531 19.0894 14.843 19.1407 14.843H31.6406C31.6919 14.843 31.7427 14.8531 31.7901 14.8727C31.8376 14.8923 31.8806 14.9211 31.9169 14.9573C31.9532 14.9936 31.982 15.0367 32.0016 15.0841C32.0212 15.1315 32.0313 15.1823 32.0312 15.2336V19.9203C32.0312 20.1363 31.8565 20.3109 31.6406 20.3109C31.4247 20.3109 31.25 20.1363 31.25 19.9203V15.6242H19.5312V22.6555H21.4843C21.7002 22.6555 21.8749 22.8302 21.8749 23.0461C21.8749 23.262 21.7003 23.4367 21.4844 23.4367Z" fill="black"/>
<path d="M21.4413 18.7493C20.7951 18.7493 20.2694 18.2235 20.2694 17.5773C20.2694 16.9311 20.7951 16.4055 21.4413 16.4055C22.0875 16.4055 22.6132 16.9311 22.6132 17.5773C22.6132 18.2235 22.0875 18.7493 21.4413 18.7493ZM21.4413 17.1867C21.2257 17.1867 21.0507 17.3622 21.0507 17.5773C21.0507 17.7925 21.2257 17.968 21.4413 17.968C21.6568 17.968 21.8319 17.7925 21.8319 17.5773C21.8319 17.3622 21.6568 17.1867 21.4413 17.1867Z" fill="black"/>
<path d="M19.9219 25.7805H19.1406C18.9247 25.7805 18.75 25.6058 18.75 25.3899C18.75 25.174 18.9247 24.9993 19.1406 24.9993H19.9219C20.1377 24.9993 20.3125 25.174 20.3125 25.3899C20.3125 25.6058 20.1377 25.7805 19.9219 25.7805Z" fill="black"/>
<path d="M19.9219 28.1243H19.1406C19.0893 28.1244 19.0385 28.1143 18.9911 28.0946C18.9437 28.075 18.9006 28.0462 18.8643 28.0099C18.828 27.9737 18.7993 27.9306 18.7797 27.8832C18.76 27.8357 18.75 27.7849 18.75 27.7336C18.75 27.6823 18.7601 27.6315 18.7797 27.5841C18.7993 27.5367 18.8281 27.4936 18.8643 27.4574C18.9006 27.4211 18.9437 27.3923 18.9911 27.3727C19.0385 27.3531 19.0893 27.343 19.1406 27.343H19.9219C19.9732 27.343 20.024 27.3531 20.0714 27.3727C20.1188 27.3923 20.1619 27.4211 20.1982 27.4574C20.2344 27.4937 20.2632 27.5367 20.2828 27.5841C20.3024 27.6315 20.3125 27.6823 20.3125 27.7336C20.3126 27.7849 20.3025 27.8357 20.2829 27.8832C20.2633 27.9306 20.2345 27.9737 20.1982 28.0099C20.1619 28.0462 20.1189 28.075 20.0715 28.0946C20.024 28.1143 19.9732 28.1244 19.9219 28.1243Z" fill="black"/>
<path d="M20.7033 30.4683H19.1407C18.9248 30.4683 18.7501 30.2935 18.7501 30.0776C18.7501 29.8617 18.9248 29.687 19.1407 29.687H20.7033C20.9191 29.687 21.0939 29.8617 21.0939 30.0776C21.0939 30.2935 20.9191 30.4683 20.7033 30.4683Z" fill="black"/>
<path d="M34.7656 20.3109C34.7143 20.311 34.6635 20.3009 34.6161 20.2813C34.5686 20.2617 34.5256 20.2329 34.4893 20.1966C34.453 20.1603 34.4242 20.1173 34.4046 20.0699C34.385 20.0225 34.3749 19.9716 34.375 19.9203V15.2336C34.3749 15.1823 34.385 15.1315 34.4046 15.0841C34.4242 15.0367 34.453 14.9936 34.4893 14.9573C34.5256 14.9211 34.5686 14.8923 34.6161 14.8727C34.6635 14.8531 34.7143 14.843 34.7656 14.843H42.5781C42.7941 14.843 42.9687 15.0177 42.9687 15.2336C42.9687 15.4495 42.7941 15.6242 42.5781 15.6242H35.1562V19.9203C35.1562 19.9716 35.1461 20.0225 35.1265 20.0699C35.1069 20.1173 35.0781 20.1603 35.0419 20.1966C35.0056 20.2329 34.9625 20.2617 34.9151 20.2813C34.8677 20.3009 34.8169 20.311 34.7656 20.3109Z" fill="black"/>
<path d="M37.0667 18.7493C36.4205 18.7493 35.8948 18.2235 35.8948 17.5773C35.8948 16.9311 36.4205 16.4055 37.0667 16.4055C37.7129 16.4055 38.2385 16.9311 38.2385 17.5773C38.2385 18.2235 37.7129 18.7493 37.0667 18.7493ZM37.0667 17.1867C36.8515 17.1867 36.6761 17.3622 36.6761 17.5773C36.6761 17.7925 36.8515 17.968 37.0667 17.968C37.2818 17.968 37.4573 17.7925 37.4573 17.5773C37.4573 17.3622 37.2818 17.1867 37.0667 17.1867Z" fill="black"/>
</svg>
