<svg width="30" height="30" viewBox="0 0 30 30" fill="none" xmlns="http://www.w3.org/2000/svg">
<g clip-path="url(#clip0_1_865)">
<path d="M14.6633 29.8779C22.7617 29.8779 29.3267 23.3129 29.3267 15.2146C29.3267 7.11626 22.7617 0.55127 14.6633 0.55127C6.56499 0.55127 0 7.11626 0 15.2146C0 23.3129 6.56499 29.8779 14.6633 29.8779Z" fill="white"/>
<path d="M16.0319 23.9149V15.9967H18.6713L19.0623 12.8685H16.0319V10.9134C16.0319 10.0336 16.3251 9.44707 17.5959 9.44707H19.2578V6.61216C18.9645 6.61216 17.987 6.5144 16.9117 6.5144C14.5655 6.5144 12.9037 7.98074 12.9037 10.6201V12.8685H10.2643V15.9967H12.9037V23.9149H16.0319Z" fill="#1C252D"/>
</g>
<defs>
<clipPath id="clip0_1_865">
<rect width="29.3267" height="29.3267" fill="white" transform="translate(0 0.55127)"/>
</clipPath>
</defs>
</svg>
