<svg width="31" height="30" viewBox="0 0 31 30" fill="none" xmlns="http://www.w3.org/2000/svg">
<g clip-path="url(#clip0_1_859)">
<path fill-rule="evenodd" clip-rule="evenodd" d="M0.97998 15.2146C0.97998 7.11628 7.545 0.55127 15.6433 0.55127C23.7416 0.55127 30.3066 7.11628 30.3066 15.2146C30.3066 23.3129 23.7416 29.8779 15.6433 29.8779C7.545 29.8779 0.97998 23.3129 0.97998 15.2146ZM15.644 7.39415C13.5201 7.39415 13.2536 7.40344 12.4194 7.44138C11.5868 7.47951 11.0186 7.61135 10.5213 7.80473C10.0069 8.00445 9.57061 8.27169 9.13591 8.70652C8.70089 9.14123 8.43365 9.57752 8.23326 10.0917C8.03939 10.5892 7.90742 11.1576 7.86997 11.9898C7.83264 12.824 7.82287 13.0907 7.82287 15.2147C7.82287 17.3386 7.83234 17.6043 7.87009 18.4385C7.9084 19.2711 8.04019 19.8393 8.23344 20.3366C8.43335 20.851 8.70053 21.2873 9.13542 21.722C9.56994 22.157 10.0062 22.4249 10.5203 22.6246C11.0179 22.818 11.5863 22.9498 12.4187 22.9879C13.2529 23.0259 13.5193 23.0352 15.6431 23.0352C17.7672 23.0352 18.0329 23.0259 18.8671 22.9879C19.6996 22.9498 20.2685 22.818 20.7662 22.6246C21.2804 22.4249 21.716 22.157 22.1505 21.722C22.5855 21.2873 22.8528 20.851 23.0532 20.3368C23.2454 19.8393 23.3774 19.2709 23.4165 18.4387C23.454 17.6045 23.4637 17.3386 23.4637 15.2147C23.4637 13.0907 23.454 12.8242 23.4165 11.99C23.3774 11.1574 23.2454 10.5892 23.0532 10.0919C22.8528 9.57752 22.5855 9.14123 22.1505 8.70652C21.7155 8.27151 21.2805 8.00433 20.7657 7.80473C20.2671 7.61135 19.6985 7.47951 18.8659 7.44138C18.0317 7.40344 17.7662 7.39415 15.6416 7.39415H15.644Z" fill="white"/>
<path fill-rule="evenodd" clip-rule="evenodd" d="M14.9425 8.80347C15.1507 8.80316 15.3831 8.80347 15.6441 8.80347C17.7321 8.80347 17.9796 8.81098 18.8042 8.84844C19.5667 8.88332 19.9806 9.01071 20.2562 9.11775C20.6212 9.2595 20.8814 9.42892 21.1549 9.70264C21.4286 9.97635 21.5981 10.2371 21.7402 10.602C21.8472 10.8774 21.9748 11.2912 22.0095 12.0537C22.0469 12.8781 22.0551 13.1258 22.0551 15.2129C22.0551 17.2999 22.0469 17.5476 22.0095 18.372C21.9746 19.1345 21.8472 19.5484 21.7402 19.8237C21.5984 20.1887 21.4286 20.4485 21.1549 20.7221C20.8812 20.9958 20.6214 21.1653 20.2562 21.307C19.9809 21.4145 19.5667 21.5416 18.8042 21.5765C17.9798 21.614 17.7321 21.6221 15.6441 21.6221C13.5558 21.6221 13.3083 21.614 12.484 21.5765C11.7215 21.5413 11.3076 21.4139 11.0318 21.3068C10.6668 21.1651 10.4061 20.9957 10.1324 20.7219C9.85867 20.4482 9.68924 20.1882 9.54719 19.8231C9.44015 19.5477 9.31258 19.1339 9.27788 18.3714C9.24036 17.547 9.23291 17.2993 9.23291 15.2109C9.23291 13.1225 9.24036 12.8761 9.27788 12.0518C9.3127 11.2893 9.44015 10.8754 9.54719 10.5997C9.68894 10.2348 9.85867 9.97409 10.1324 9.70038C10.4061 9.42666 10.6668 9.25724 11.0318 9.11513C11.3075 9.00759 11.7215 8.88051 12.484 8.8455C13.2054 8.81294 13.485 8.80316 14.9425 8.80151V8.80347ZM19.8186 10.102C19.3005 10.102 18.8802 10.5219 18.8802 11.0401C18.8802 11.5582 19.3005 11.9786 19.8186 11.9786C20.3367 11.9786 20.7571 11.5582 20.7571 11.0401C20.7571 10.522 20.3367 10.102 19.8186 10.102ZM15.6441 11.1985C13.4261 11.1985 11.6279 12.9968 11.6279 15.2146C11.6279 17.4326 13.4261 19.23 15.6441 19.23C17.862 19.23 19.6596 17.4326 19.6596 15.2146C19.6596 12.9968 17.862 11.1985 15.6441 11.1985Z" fill="white"/>
<path fill-rule="evenodd" clip-rule="evenodd" d="M15.6441 12.6079C17.0837 12.6079 18.2509 13.775 18.2509 15.2147C18.2509 16.6544 17.0837 17.8216 15.6441 17.8216C14.2042 17.8216 13.0372 16.6544 13.0372 15.2147C13.0372 13.775 14.2042 12.6079 15.6441 12.6079Z" fill="white"/>
</g>
<defs>
<clipPath id="clip0_1_859">
<rect width="29.3267" height="29.3267" fill="white" transform="translate(0.97998 0.55127)"/>
</clipPath>
</defs>
</svg>
