<svg width="31" height="30" viewBox="0 0 31 30" fill="none" xmlns="http://www.w3.org/2000/svg">
<g clip-path="url(#clip0_1_857)">
<path fill-rule="evenodd" clip-rule="evenodd" d="M15.6333 0.55127C23.7258 0.55127 30.2966 7.11326 30.2966 15.2146C30.2966 23.3071 23.7346 29.8779 15.6333 29.8779C7.54076 29.8779 0.969971 23.3159 0.969971 15.2146C0.969971 7.12206 7.53196 0.55127 15.6333 0.55127ZM13.7421 12.303H16.7504V13.8424H16.7944C17.2166 13.0859 18.237 12.303 19.7675 12.303C22.943 12.303 23.5323 14.2822 23.5323 16.8507V22.0933H20.3921V17.4488C20.3921 16.3405 20.3657 14.9155 18.756 14.9155C17.1199 14.9155 16.8736 16.1206 16.8736 17.3697V22.0933H13.7333V12.303H13.7421ZM11.5694 9.585C11.5694 10.4822 10.8393 11.2211 9.93333 11.2211C9.03612 11.2211 8.29723 10.491 8.29723 9.585C8.29723 8.68779 9.02732 7.9489 9.93333 7.9489C10.8306 7.9489 11.5694 8.67899 11.5694 9.585ZM8.30603 12.303H11.5694V22.0933H8.30603V12.303Z" fill="white"/>
</g>
<defs>
<clipPath id="clip0_1_857">
<rect width="29.3267" height="29.3267" fill="white" transform="translate(0.969971 0.55127)"/>
</clipPath>
</defs>
</svg>
