<svg width="54" height="32" viewBox="0 0 54 32" fill="none" xmlns="http://www.w3.org/2000/svg">
<path d="M51.0652 0H31.1087C29.4652 0 28.1739 1.3037 28.1739 2.96296V9.48148H25.8261V2.96296C25.8261 1.3037 24.5348 0 22.8913 0H2.93478C1.2913 0 0 1.3037 0 2.96296V29.037C0 30.6963 1.2913 32 2.93478 32H22.8913C24.5348 32 25.8261 30.6963 25.8261 29.037V25.4815H28.1739V29.037C28.1739 30.6963 29.4652 32 31.1087 32H51.0652C52.7087 32 54 30.6963 54 29.037V2.96296C54 1.3037 52.7087 0 51.0652 0ZM31.1087 1.18519H51.0652C52.063 1.18519 52.8261 1.95556 52.8261 2.96296V5.92593H29.3478V2.96296C29.3478 1.95556 30.1109 1.18519 31.1087 1.18519ZM22.8913 24.2963V13.6296H28.1739V15.4074H25.2391C24.887 15.4074 24.6522 15.6444 24.6522 16V21.9259C24.6522 22.2815 24.887 22.5185 25.2391 22.5185H36.9783C37.3304 22.5185 37.5652 22.2815 37.5652 21.9259V16C37.5652 15.6444 37.3304 15.4074 36.9783 15.4074H32.2826V13.6296H39.3261V24.2963H22.8913ZM21.7174 18.3704H17.6087V13.6296H21.7174V18.3704ZM28.1739 16.5926V18.3704H25.8261V16.5926H28.1739ZM32.2826 16.5926H36.3913V21.3333H32.2826V16.5926ZM31.1087 21.3333H25.8261V19.5556H28.7609C29.113 19.5556 29.3478 19.3185 29.3478 18.963V13.037C29.3478 12.6815 29.113 12.4444 28.7609 12.4444H17.0217C16.6696 12.4444 16.4348 12.6815 16.4348 13.037V18.963C16.4348 19.3185 16.6696 19.5556 17.0217 19.5556H21.7174V21.3333H14.6739V10.6667H31.1087V21.3333ZM2.93478 1.18519H22.8913C23.8891 1.18519 24.6522 1.95556 24.6522 2.96296V5.92593H1.17391V2.96296C1.17391 1.95556 1.93696 1.18519 2.93478 1.18519ZM24.6522 29.037C24.6522 30.0444 23.8891 30.8148 22.8913 30.8148H2.93478C1.93696 30.8148 1.17391 30.0444 1.17391 29.037V7.11111H24.6522V9.48148H14.087C13.7348 9.48148 13.5 9.71852 13.5 10.0741V21.9259C13.5 22.2815 13.7348 22.5185 14.087 22.5185H21.7174V24.8889C21.7174 25.2444 21.9522 25.4815 22.3043 25.4815H24.6522V29.037ZM51.0652 30.8148H31.1087C30.1109 30.8148 29.3478 30.0444 29.3478 29.037V25.4815H39.913C40.2652 25.4815 40.5 25.2444 40.5 24.8889V13.037C40.5 12.6815 40.2652 12.4444 39.913 12.4444H32.2826V10.0741C32.2826 9.71852 32.0478 9.48148 31.6957 9.48148H29.3478V7.11111H52.8261V29.037C52.8261 30.0444 52.063 30.8148 51.0652 30.8148Z" fill="black"/>
</svg>
