<svg width="31" height="30" viewBox="0 0 31 30" fill="none" xmlns="http://www.w3.org/2000/svg">
<g clip-path="url(#clip0_1_863)">
<path d="M15.6533 0.844727C7.71747 0.844727 1.2832 7.27606 1.2832 15.2148C1.2832 23.1535 7.71747 29.5848 15.6533 29.5848C23.5891 29.5848 30.0233 23.1535 30.0233 15.2148C30.0233 7.27606 23.5891 0.844727 15.6533 0.844727ZM23.1785 12.6428C23.1843 12.7865 23.1873 12.9332 23.1873 13.0798C23.1873 17.5463 19.7854 22.7019 13.5652 22.7019C11.656 22.7019 9.87884 22.1417 8.38025 21.1828C8.64419 21.215 8.914 21.2297 9.18674 21.2297C10.7704 21.2297 12.2279 20.6901 13.3863 19.7839C11.9082 19.7546 10.6589 18.778 10.2278 17.4348C10.4331 17.4729 10.6443 17.4935 10.8642 17.4935C11.1722 17.4935 11.4713 17.4524 11.7558 17.3732C10.2102 17.0624 9.04304 15.6928 9.04304 14.0535C9.04304 14.0417 9.04304 14.0271 9.04304 14.0124C9.50053 14.2646 10.0196 14.4171 10.5768 14.4347C9.67063 13.8276 9.07236 12.7953 9.07236 11.6193C9.07236 11.0005 9.23952 10.4199 9.52986 9.91839C11.1956 11.9654 13.6913 13.3115 16.5008 13.4523C16.4421 13.2059 16.4128 12.9478 16.4128 12.681C16.4128 10.8129 17.9261 9.2996 19.7942 9.2996C20.7649 9.2996 21.6447 9.71017 22.2635 10.3671C23.0318 10.2146 23.7562 9.93306 24.4102 9.54888C24.158 10.3378 23.6184 11.0005 22.9233 11.417C23.6067 11.3349 24.2577 11.153 24.8648 10.8862C24.4131 11.5695 23.8383 12.1677 23.1785 12.6428Z" fill="white"/>
</g>
<defs>
<clipPath id="clip0_1_863">
<rect width="29.3267" height="29.3267" fill="white" transform="translate(0.98999 0.55127)"/>
</clipPath>
</defs>
</svg>
