<?xml version="1.0" standalone="no"?>
<!DOCTYPE svg PUBLIC "-//W3C//DTD SVG 20010904//EN"
 "http://www.w3.org/TR/2001/REC-SVG-20010904/DTD/svg10.dtd">
<svg version="1.0" xmlns="http://www.w3.org/2000/svg"
 width="181.000000pt" height="181.000000pt" viewBox="0 0 181.000000 181.000000"
 preserveAspectRatio="xMidYMid meet">
<metadata>
Created by potrace 1.14, written by Peter Selinger 2001-2017
</metadata>
<g transform="translate(0.000000,181.000000) scale(0.100000,-0.100000)"
fill="#000000" stroke="none">
<path d="M393 1064 c4 -4 2 -13 -3 -19 -7 -9 -6 -16 4 -24 10 -8 16 -9 21 -1
3 6 11 7 17 4 6 -4 6 1 -1 14 -6 11 -18 23 -28 26 -10 4 -14 4 -10 0z"/>
<path d="M297 1048 c10 -17 13 -39 4 -34 -16 10 -33 -15 -61 -93 -16 -46 -37
-89 -47 -97 -14 -11 -10 -11 19 1 47 19 48 19 48 -3 0 -10 5 -23 11 -29 12
-12 -24 -29 -93 -42 -60 -11 -79 0 -53 29 l20 22 -32 -19 c-18 -10 -35 -24
-38 -32 -13 -34 40 -34 150 -1 33 9 76 16 95 15 19 -1 40 2 47 7 7 5 18 6 24
2 8 -5 9 -3 4 5 -4 7 -16 11 -26 8 -38 -10 -17 11 35 36 30 14 57 31 61 37 3
6 -11 2 -32 -9 -130 -65 -145 -64 -119 13 21 60 20 66 -4 66 -21 0 -24 8 -14
34 9 22 44 20 69 -4 12 -11 37 -25 56 -30 l34 -9 -30 22 c-16 12 -51 43 -76
69 -45 46 -69 62 -52 36z"/>
<path d="M360 1010 c0 -5 7 -10 15 -10 8 0 15 5 15 10 0 6 -7 10 -15 10 -8 0
-15 -4 -15 -10z"/>
<path d="M680 1012 c-36 -5 -65 -36 -79 -83 -18 -59 7 -87 27 -30 7 19 19 31
33 33 31 4 37 28 7 28 -21 1 -22 2 -5 14 9 7 28 11 42 8 18 -3 25 0 25 11 0
18 -16 24 -50 19z"/>
<path d="M1113 1005 c-18 -8 -47 -16 -65 -18 -22 -2 -34 -9 -36 -21 -3 -14 1
-17 17 -11 20 6 21 4 15 -34 -4 -28 -3 -41 5 -41 6 0 14 -1 18 -2 3 -2 14 19
23 46 19 57 44 76 37 29 -6 -38 20 -73 57 -76 40 -3 44 19 5 27 -30 6 -31 8
-25 41 6 29 4 35 -11 35 -17 1 -17 1 0 11 20 12 23 29 5 29 -7 -1 -28 -7 -45
-15z"/>
<path d="M889 971 c-19 -16 -22 -23 -13 -37 6 -10 23 -19 37 -19 51 -3 41 -15
-12 -15 -38 0 -51 -4 -48 -12 7 -21 107 -16 122 6 21 28 7 46 -36 46 -55 0
-49 18 8 22 62 4 71 28 10 28 -30 0 -53 -7 -68 -19z"/>
<path d="M1652 980 c-65 -10 -100 -61 -66 -94 20 -21 115 -19 122 2 3 9 -4 13
-19 12 -49 -4 -80 0 -74 10 4 6 10 8 15 5 11 -7 40 5 40 16 0 5 -12 9 -27 9
-46 0 -8 16 44 19 45 2 61 7 52 15 -11 10 -48 13 -87 6z"/>
<path d="M1401 929 c-7 -27 -10 -53 -6 -57 8 -8 35 26 35 45 0 19 7 16 42 -17
43 -41 62 -39 82 10 20 50 20 70 2 70 -8 0 -17 -13 -21 -30 -4 -16 -11 -30
-16 -30 -12 0 -49 37 -49 50 0 6 -13 10 -28 10 -26 0 -29 -5 -41 -51z"/>
<path d="M722 930 c-23 -21 -42 -44 -42 -50 0 -13 27 -13 35 0 3 6 24 10 45
10 21 0 42 -4 45 -10 10 -16 35 -12 35 6 0 9 -7 31 -16 50 -22 46 -50 44 -102
-6z m69 -13 c-4 -4 -16 -5 -26 -1 -17 7 -17 8 1 21 14 10 19 10 25 1 5 -7 5
-16 0 -21z"/>
<path d="M1281 944 c-54 -45 -67 -89 -19 -63 25 14 67 13 83 -2 30 -30 36 40
5 71 -26 26 -32 25 -69 -6z m50 -18 c-1 -16 -31 -15 -31 1 0 8 7 13 16 11 8
-2 15 -7 15 -12z"/>
<path d="M740 841 c0 -7 -4 -10 -9 -7 -5 3 -11 -3 -14 -14 -3 -14 0 -20 11
-20 8 0 12 3 9 7 -4 3 -2 12 5 20 6 7 8 16 4 20 -3 3 -6 1 -6 -6z"/>
<path d="M602 828 c-19 -19 -15 -23 26 -24 20 -1 31 1 25 3 -17 6 -16 23 1 23
8 0 16 -7 20 -15 3 -8 11 -15 18 -14 10 0 10 2 1 6 -19 7 -16 21 5 26 9 2 0 4
-21 4 -26 1 -40 -4 -44 -15 -6 -14 -7 -14 -12 2 -5 13 -9 14 -19 4z"/>
<path d="M756 824 c-9 -23 -8 -24 12 -23 9 0 12 3 5 5 -7 3 -9 12 -6 20 3 8 3
14 0 14 -3 0 -8 -7 -11 -16z"/>
<path d="M796 833 c-13 -13 -5 -33 12 -32 10 0 12 3 4 6 -6 2 -10 9 -6 14 8
14 24 11 24 -4 0 -8 7 -14 15 -14 8 0 15 8 15 17 0 12 -9 17 -29 18 -16 0 -32
-2 -35 -5z"/>
<path d="M881 826 c-9 -11 -7 -15 8 -19 14 -3 17 0 14 14 -6 23 -7 23 -22 5z"/>
<path d="M917 820 c3 -11 7 -20 8 -20 1 0 5 9 8 20 3 12 0 20 -8 20 -8 0 -11
-8 -8 -20z"/>
<path d="M950 820 c0 -11 4 -20 10 -20 5 0 6 7 3 17 -4 11 -3 14 5 9 7 -4 12
-2 12 3 0 6 -7 11 -15 11 -8 0 -15 -9 -15 -20z"/>
<path d="M991 823 c-1 -25 9 -29 27 -11 7 7 12 8 12 2 0 -6 7 -11 15 -11 9 0
15 9 14 21 0 12 -3 15 -6 9 -2 -7 -9 -13 -14 -13 -6 0 -7 6 -3 13 4 6 -2 4
-13 -6 -21 -18 -21 -18 -26 0 -4 14 -5 14 -6 -4z"/>
<path d="M1111 828 c-1 -12 -6 -15 -18 -11 -15 5 -16 3 -5 -8 15 -16 37 1 29
23 -4 9 -6 8 -6 -4z"/>
<path d="M1130 820 c0 -12 7 -20 16 -20 13 0 14 3 5 14 -9 11 -9 15 1 19 8 4
7 6 -4 6 -12 1 -18 -6 -18 -19z"/>
<path d="M1185 830 c-8 -13 3 -30 18 -29 9 0 9 2 0 6 -18 7 -16 21 5 26 15 4
15 5 0 6 -9 0 -20 -3 -23 -9z"/>
<path d="M1225 823 c-8 -23 -6 -29 5 -13 9 13 11 13 20 0 8 -12 10 -11 10 6 0
23 -26 28 -35 7z"/>
<path d="M1282 827 c-10 -12 -9 -15 6 -19 11 -3 27 -1 36 4 11 6 16 5 16 -4 0
-10 2 -10 9 1 6 9 11 10 15 2 12 -18 36 -12 36 9 0 21 -16 26 -40 10 -9 -5
-19 -5 -26 1 -8 6 -14 4 -19 -8 -7 -17 -8 -17 -14 0 -6 17 -9 17 -19 4z m108
-7 c0 -5 -4 -10 -10 -10 -5 0 -10 5 -10 10 0 6 5 10 10 10 6 0 10 -4 10 -10z"/>
<path d="M1410 820 c0 -11 4 -20 10 -20 5 0 6 7 3 17 -4 11 -3 14 5 9 7 -4 12
-2 12 3 0 6 -7 11 -15 11 -8 0 -15 -9 -15 -20z"/>
<path d="M1452 826 c4 -28 38 -30 38 -3 0 18 -2 19 -10 7 -9 -13 -11 -13 -21
0 -8 13 -10 12 -7 -4z"/>
<path d="M1507 833 c-13 -13 -7 -33 11 -33 14 0 15 2 2 10 -10 6 -11 10 -2 10
6 0 12 5 12 10 0 11 -13 13 -23 3z"/>
<path d="M1547 833 c-4 -3 -7 -13 -7 -22 1 -13 3 -13 11 2 11 19 8 33 -4 20z"/>
<path d="M1567 825 c-4 -8 -2 -17 3 -20 6 -4 10 3 10 14 0 25 -6 27 -13 6z"/>
<path d="M1596 825 c4 -8 7 -15 9 -15 2 0 5 7 9 15 3 9 0 15 -9 15 -9 0 -12
-6 -9 -15z"/>
</g>
</svg>
